<svg width="297" height="308" viewBox="0 0 297 308" fill="none" xmlns="http://www.w3.org/2000/svg">
<path d="M165.477 0.00201249C171.477 0.162012 178.427 3.52201 183.187 11.002L289.967 177.842C292.607 181.962 295.447 185.982 295.907 191.112C296.857 201.742 292.737 209.972 283.907 215.772C273.747 222.492 263.427 228.962 253.167 235.532C218.174 257.952 183.137 280.369 148.057 302.782C139.357 308.332 130.187 309.152 121.057 304.062C108.717 297.162 105.957 280.932 114.847 269.282C116.93 266.581 119.476 264.272 122.367 262.462C160.081 238.335 197.797 214.215 235.517 190.102C237.197 189.032 237.517 188.412 236.357 186.592C227.517 172.992 218.771 159.325 210.117 145.592C209.117 144.002 208.487 143.872 206.917 144.882C183.857 159.772 160.677 174.522 137.617 189.402C130.187 194.182 122.317 195.802 113.887 192.842C98.1473 187.332 93.6173 168.172 104.807 154.972C106.737 152.764 108.989 150.859 111.487 149.322C134.607 134.535 157.734 119.752 180.867 104.972C182.587 103.882 183.017 103.192 181.767 101.272C172.761 87.3587 163.844 73.4287 155.017 59.482C154.017 57.972 153.487 57.682 151.857 58.722C113.917 83.082 75.9473 107.395 37.9473 131.662C25.3573 139.712 9.17726 135.982 2.57726 123.572C-3.13274 112.822 0.927255 98.802 11.9673 91.572C20.8373 85.762 29.8073 80.112 38.7373 74.402C75.0506 51.162 111.364 27.9187 147.677 4.67201C152.307 1.69201 157.267 -0.0679875 165.477 0.00201249Z" fill="white"/>
<path d="M106.337 263.512C96.9473 263.122 89.7573 258.822 84.7073 250.962C70.8339 229.322 56.9839 207.672 43.1573 186.012C39.9173 180.942 36.5773 175.942 33.4473 170.812C27.9173 161.812 27.3073 152.552 32.6973 143.202C34.6578 140.019 37.3619 137.359 40.5773 135.452C68.8773 117.312 97.1906 99.1921 125.517 81.0921C130.177 78.0921 134.857 75.0921 140.517 74.4021C149.647 73.3221 157.517 75.5421 163.067 83.4021C168.297 90.8221 167.797 101.032 162.067 109.222C159.592 112.62 156.46 115.486 152.857 117.652C130.657 131.819 108.461 145.995 86.2673 160.182C84.4773 161.322 84.2673 162.062 85.4373 163.902C94.7239 178.235 103.934 192.622 113.067 207.062C114.067 208.692 114.767 208.672 116.287 207.702C138.907 193.162 161.551 178.655 184.217 164.182C190.807 159.972 197.957 158.522 205.557 160.492C219.757 164.162 225.667 179.552 218.057 192.732C215.954 196.477 212.972 199.655 209.367 201.992C179.627 221.105 149.881 240.205 120.127 259.292C116.072 262.079 111.258 263.552 106.337 263.512Z" fill="white"/>
</svg>
