<svg width="298" height="84" viewBox="0 0 298 84" fill="none" xmlns="http://www.w3.org/2000/svg">
<path d="M44.3771 0.75918C45.9599 0.808801 47.8124 1.71978 49.0847 3.71224C58.6152 18.6137 68.1483 33.5143 77.6839 48.414C78.3901 49.5171 79.142 50.5973 79.2629 51.9701C79.5072 54.7693 78.4384 56.9526 76.1419 58.4946C73.769 60.0901 71.335 61.5953 68.9253 63.136C59.164 69.3831 49.4006 75.6281 39.6351 81.871C37.2826 83.3711 34.8003 83.5708 32.3549 82.1547C29.1156 80.2768 28.4107 76.0081 30.7442 72.9151C31.3121 72.1728 32.0095 71.5392 32.8028 71.0448C42.9016 64.5789 53.0056 58.1201 63.1146 51.6686C63.6171 51.3467 63.579 51.1533 63.2965 50.7169C60.9546 47.0882 58.6258 43.4477 56.3102 39.7953C56.0354 39.3614 55.8585 39.294 55.4068 39.5854C49.2437 43.5537 43.0653 47.4903 36.8958 51.4574C34.9059 52.7374 32.8053 53.1916 30.5406 52.4129C26.2923 50.9523 25.062 45.7816 28.0901 42.2343C28.611 41.6487 29.2155 41.1433 29.8841 40.7343C36.076 36.774 42.271 32.8149 48.4689 28.8571C48.9778 28.5352 48.9778 28.324 48.6712 27.8571C46.2894 24.1767 43.9254 20.4836 41.5793 16.7777C41.2943 16.3286 41.1238 16.2014 40.6021 16.536C30.477 23.0426 20.3408 29.534 10.1936 36.0101C7.37541 37.813 3.72639 37.4606 1.61943 35.1869C-1.05245 32.2988 -0.337398 27.6243 3.16912 25.3125C5.53946 23.75 7.94669 22.2423 10.3374 20.7117C20.0808 14.4757 29.8234 8.23874 39.5652 2.00097C40.8184 1.19686 42.1518 0.732462 44.3771 0.75918Z" fill="#C82027"/>
<path d="M28.4849 71.3361C25.9682 71.2331 24.0445 70.0829 22.6933 67.9759C18.9984 62.2157 15.3087 56.4521 11.624 50.6851C10.7334 49.2944 9.81735 47.9178 8.95217 46.5081C7.47373 44.0906 7.31088 41.6147 8.75624 39.112C9.26517 38.2291 10.0209 37.5764 10.8657 37.0356C18.4479 32.1779 26.0318 27.3244 33.6174 22.4752C34.849 21.6889 36.0806 20.8873 37.5807 20.6939C40.0503 20.3784 42.189 20.97 43.6878 23.0872C45.0874 25.0732 44.95 27.81 43.4334 30.0035C42.7794 30.9437 41.9219 31.6486 40.9651 32.2606C35.0199 36.0581 29.0731 39.8581 23.1246 43.6606C22.6385 43.9698 22.5889 44.1695 22.9045 44.6568C25.3821 48.4789 27.8364 52.3154 30.2674 56.1663C30.5804 56.6612 30.7763 56.6434 31.2229 56.3533C37.263 52.4659 43.3104 48.5913 49.3649 44.7293C51.1309 43.6008 53.047 43.2153 55.0828 43.742C58.8857 44.7268 60.4647 48.8479 58.4251 52.3811C57.8599 53.3828 57.0601 54.2324 56.0943 54.857C48.1287 59.9769 40.1601 65.0929 32.1886 70.2051C31.0689 70.9226 29.8513 71.3883 28.4849 71.3361Z" fill="#2C2C2C"/>
<path d="M94.0043 26.2877C94.0043 24.1777 94.4608 22.301 95.3737 20.6577C96.2867 18.994 97.5548 17.7057 99.1778 16.7927C100.821 15.8594 102.678 15.3928 104.747 15.3928C107.283 15.3928 109.454 16.0623 111.26 17.4014C113.065 18.7404 114.272 20.5664 114.881 22.8792H109.16C108.734 21.9865 108.125 21.3069 107.334 20.8402C106.563 20.3736 105.68 20.1403 104.686 20.1403C103.083 20.1403 101.785 20.6982 100.791 21.8141C99.7966 22.93 99.2996 24.4212 99.2996 26.2877C99.2996 28.1542 99.7966 29.6454 100.791 30.7613C101.785 31.8772 103.083 32.4351 104.686 32.4351C105.68 32.4351 106.563 32.2018 107.334 31.7351C108.125 31.2685 108.734 30.5888 109.16 29.6962H114.881C114.272 32.009 113.065 33.835 111.26 35.174C109.454 36.4928 107.283 37.1522 104.747 37.1522C102.678 37.1522 100.821 36.6957 99.1778 35.7827C97.5548 34.8494 96.2867 33.5611 95.3737 31.9177C94.4608 30.2744 94.0043 28.3977 94.0043 26.2877ZM128.172 37.213C126.163 37.213 124.317 36.7464 122.633 35.8131C120.969 34.8799 119.64 33.5814 118.646 31.9177C117.672 30.2338 117.185 28.347 117.185 26.2573C117.185 24.1676 117.672 22.2909 118.646 20.6272C119.64 18.9636 120.969 17.6651 122.633 16.7318C124.317 15.7986 126.163 15.3319 128.172 15.3319C130.18 15.3319 132.016 15.7986 133.68 16.7318C135.364 17.6651 136.683 18.9636 137.636 20.6272C138.61 22.2909 139.097 24.1676 139.097 26.2573C139.097 28.347 138.61 30.2338 137.636 31.9177C136.662 33.5814 135.344 34.8799 133.68 35.8131C132.016 36.7464 130.18 37.213 128.172 37.213ZM128.172 32.4655C129.876 32.4655 131.235 31.8975 132.25 30.7613C133.284 29.6251 133.802 28.1238 133.802 26.2573C133.802 24.3704 133.284 22.8691 132.25 21.7532C131.235 20.6171 129.876 20.049 128.172 20.049C126.447 20.049 125.067 20.6069 124.033 21.7228C123.018 22.8387 122.511 24.3502 122.511 26.2573C122.511 28.1441 123.018 29.6556 124.033 30.7917C125.067 31.9076 126.447 32.4655 128.172 32.4655ZM149.996 15.6363C152.248 15.6363 154.216 16.0826 155.9 16.9753C157.584 17.868 158.882 19.1259 159.795 20.7489C160.728 22.3517 161.195 24.2081 161.195 26.3181C161.195 28.4078 160.728 30.2642 159.795 31.8873C158.882 33.5104 157.574 34.7683 155.869 35.661C154.185 36.5537 152.228 37 149.996 37H141.992V15.6363H149.996ZM149.661 32.496C151.629 32.496 153.161 31.9583 154.256 30.883C155.352 29.8077 155.9 28.2861 155.9 26.3181C155.9 24.3502 155.352 22.8184 154.256 21.7228C153.161 20.6272 151.629 20.0794 149.661 20.0794H147.196V32.496H149.661ZM169.307 19.8055V24.127H176.276V28.1441H169.307V32.8307H177.189V37H164.103V15.6363H177.189V19.8055H169.307ZM204.762 15.6363V37H199.558V24.1878L194.78 37H190.58L185.772 24.1574V37H180.568V15.6363H186.715L192.711 30.4265L198.645 15.6363H204.762ZM221.803 33.2263H213.83L212.552 37H207.104L214.834 15.6363H220.86L228.59 37H223.081L221.803 33.2263ZM220.464 29.2092L217.817 21.388L215.199 29.2092H220.464ZM246.311 15.6363V19.8055H240.65V37H235.446V19.8055H229.786V15.6363H246.311ZM254.127 15.6363V37H248.923V15.6363H254.127ZM257.015 26.2877C257.015 24.1777 257.472 22.301 258.385 20.6577C259.298 18.994 260.566 17.7057 262.189 16.7927C263.832 15.8594 265.689 15.3928 267.758 15.3928C270.294 15.3928 272.465 16.0623 274.271 17.4014C276.076 18.7404 277.283 20.5664 277.892 22.8792H272.171C271.745 21.9865 271.136 21.3069 270.345 20.8402C269.574 20.3736 268.691 20.1403 267.697 20.1403C266.094 20.1403 264.796 20.6982 263.802 21.8141C262.808 22.93 262.311 24.4212 262.311 26.2877C262.311 28.1542 262.808 29.6454 263.802 30.7613C264.796 31.8772 266.094 32.4351 267.697 32.4351C268.691 32.4351 269.574 32.2018 270.345 31.7351C271.136 31.2685 271.745 30.5888 272.171 29.6962H277.892C277.283 32.009 276.076 33.835 274.271 35.174C272.465 36.4928 270.294 37.1522 267.758 37.1522C265.689 37.1522 263.832 36.6957 262.189 35.7827C260.566 34.8494 259.298 33.5611 258.385 31.9177C257.472 30.2744 257.015 28.3977 257.015 26.2877ZM288.809 37.213C287.247 37.213 285.847 36.9594 284.609 36.4522C283.372 35.945 282.377 35.1943 281.627 34.2002C280.896 33.2061 280.511 32.009 280.47 30.6091H286.009C286.09 31.4004 286.364 32.009 286.831 32.4351C287.297 32.8409 287.906 33.0438 288.657 33.0438C289.428 33.0438 290.036 32.8713 290.483 32.5264C290.929 32.1612 291.152 31.6641 291.152 31.0352C291.152 30.5077 290.97 30.0715 290.604 29.7266C290.259 29.3817 289.823 29.0976 289.296 28.8745C288.789 28.6513 288.058 28.3977 287.105 28.1137C285.725 27.6876 284.599 27.2615 283.727 26.8355C282.854 26.4094 282.104 25.7805 281.475 24.9487C280.846 24.1168 280.531 23.0314 280.531 21.6924C280.531 19.7041 281.251 18.152 282.692 17.0362C284.132 15.9 286.009 15.3319 288.322 15.3319C290.675 15.3319 292.572 15.9 294.013 17.0362C295.453 18.152 296.224 19.7142 296.326 21.7228H290.696C290.655 21.033 290.401 20.4953 289.935 20.1099C289.468 19.7041 288.87 19.5012 288.139 19.5012C287.51 19.5012 287.003 19.6737 286.618 20.0186C286.232 20.3432 286.039 20.82 286.039 21.4489C286.039 22.1387 286.364 22.6764 287.013 23.0618C287.663 23.4473 288.677 23.8632 290.057 24.3096C291.436 24.7762 292.552 25.2226 293.404 25.6486C294.277 26.0747 295.027 26.6935 295.656 27.505C296.285 28.3165 296.6 29.3614 296.6 30.6396C296.6 31.8569 296.285 32.9626 295.656 33.9567C295.048 34.9509 294.155 35.7421 292.978 36.3305C291.801 36.9188 290.412 37.213 288.809 37.213Z" fill="#2C2C2C"/>
<path d="M109.991 55.7687C109.991 56.9261 109.725 57.9886 109.194 58.9563C108.663 59.905 107.847 60.6734 106.746 61.2616C105.646 61.8497 104.28 62.1438 102.648 62.1438H99.6312V69.3158H94.7645V49.3367H102.648C104.242 49.3367 105.589 49.6119 106.689 50.1621C107.79 50.7123 108.615 51.4713 109.165 52.4389C109.716 53.4065 109.991 54.5165 109.991 55.7687ZM102.278 58.2732C103.208 58.2732 103.9 58.055 104.356 57.6187C104.811 57.1823 105.039 56.5656 105.039 55.7687C105.039 54.9719 104.811 54.3552 104.356 53.9188C103.9 53.4824 103.208 53.2642 102.278 53.2642H99.6312V58.2732H102.278ZM121.973 69.515C120.095 69.515 118.368 69.0786 116.793 68.2058C115.238 67.3331 113.995 66.1188 113.065 64.5629C112.154 62.9881 111.699 61.2236 111.699 59.2693C111.699 57.3151 112.154 55.56 113.065 54.0042C113.995 52.4484 115.238 51.2341 116.793 50.3613C118.368 49.4885 120.095 49.0521 121.973 49.0521C123.852 49.0521 125.569 49.4885 127.124 50.3613C128.699 51.2341 129.933 52.4484 130.824 54.0042C131.735 55.56 132.19 57.3151 132.19 59.2693C132.19 61.2236 131.735 62.9881 130.824 64.5629C129.914 66.1188 128.68 67.3331 127.124 68.2058C125.569 69.0786 123.852 69.515 121.973 69.515ZM121.973 65.0752C123.567 65.0752 124.838 64.544 125.787 63.4815C126.754 62.4189 127.238 61.0149 127.238 59.2693C127.238 57.5048 126.754 56.1008 125.787 55.0572C124.838 53.9947 123.567 53.4635 121.973 53.4635C120.36 53.4635 119.07 53.9852 118.103 55.0288C117.154 56.0723 116.68 57.4858 116.68 59.2693C116.68 61.0339 117.154 62.4474 118.103 63.5099C119.07 64.5535 120.36 65.0752 121.973 65.0752ZM139.765 49.3367V69.3158H134.898V49.3367H139.765ZM161.164 69.3158H156.298L148.158 56.9925V69.3158H143.291V49.3367H148.158L156.298 61.7169V49.3367H161.164V69.3158ZM179.064 49.3367V53.2358H173.771V69.3158H168.904V53.2358H163.611V49.3367H179.064ZM196.987 69.515C195.108 69.515 193.382 69.0786 191.807 68.2058C190.251 67.3331 189.009 66.1188 188.079 64.5629C187.168 62.9881 186.713 61.2236 186.713 59.2693C186.713 57.3151 187.168 55.56 188.079 54.0042C189.009 52.4484 190.251 51.2341 191.807 50.3613C193.382 49.4885 195.108 49.0521 196.987 49.0521C198.865 49.0521 200.582 49.4885 202.138 50.3613C203.713 51.2341 204.946 52.4484 205.838 54.0042C206.749 55.56 207.204 57.3151 207.204 59.2693C207.204 61.2236 206.749 62.9881 205.838 64.5629C204.927 66.1188 203.694 67.3331 202.138 68.2058C200.582 69.0786 198.865 69.515 196.987 69.515ZM196.987 65.0752C198.581 65.0752 199.852 64.544 200.801 63.4815C201.768 62.4189 202.252 61.0149 202.252 59.2693C202.252 57.5048 201.768 56.1008 200.801 55.0572C199.852 53.9947 198.581 53.4635 196.987 53.4635C195.374 53.4635 194.084 53.9852 193.116 55.0288C192.168 56.0723 191.693 57.4858 191.693 59.2693C191.693 61.0339 192.168 62.4474 193.116 63.5099C194.084 64.5535 195.374 65.0752 196.987 65.0752ZM222.918 49.3367V53.2358H214.778V57.4479H220.869V61.2331H214.778V69.3158H209.912V49.3367H222.918ZM238.736 69.515C237.275 69.515 235.966 69.2778 234.808 68.8035C233.651 68.3292 232.721 67.6272 232.019 66.6975C231.336 65.7678 230.976 64.6483 230.938 63.3392H236.117C236.193 64.0791 236.449 64.6483 236.886 65.0468C237.322 65.4262 237.891 65.616 238.593 65.616C239.314 65.616 239.884 65.4547 240.301 65.1321C240.718 64.7906 240.927 64.3258 240.927 63.7376C240.927 63.2443 240.756 62.8364 240.415 62.5138C240.092 62.1913 239.684 61.9256 239.191 61.7169C238.717 61.5082 238.034 61.271 237.142 61.0054C235.852 60.607 234.799 60.2085 233.983 59.8101C233.167 59.4116 232.465 58.8235 231.877 58.0456C231.289 57.2676 230.995 56.2526 230.995 55.0003C230.995 53.1409 231.668 51.6895 233.015 50.6459C234.362 49.5834 236.117 49.0521 238.28 49.0521C240.481 49.0521 242.255 49.5834 243.602 50.6459C244.95 51.6895 245.671 53.1504 245.765 55.0288H240.5C240.462 54.3837 240.225 53.8809 239.789 53.5204C239.352 53.1409 238.793 52.9512 238.11 52.9512C237.521 52.9512 237.047 53.1125 236.687 53.435C236.326 53.7386 236.146 54.1845 236.146 54.7726C236.146 55.4177 236.449 55.9205 237.057 56.281C237.664 56.6415 238.612 57.0305 239.903 57.4479C241.193 57.8843 242.236 58.3017 243.033 58.7001C243.849 59.0986 244.551 59.6773 245.139 60.4362C245.727 61.1952 246.022 62.1723 246.022 63.3676C246.022 64.506 245.727 65.5401 245.139 66.4698C244.57 67.3995 243.735 68.1394 242.635 68.6897C241.534 69.2399 240.235 69.515 238.736 69.515ZM261.454 65.7867H253.997L252.802 69.3158H247.707L254.936 49.3367H260.571L267.8 69.3158H262.649L261.454 65.7867ZM260.201 62.03L257.725 54.7157L255.278 62.03H260.201ZM274.867 65.5591H281.242V69.3158H270V49.3367H274.867V65.5591ZM288.43 53.2358V57.2771H294.947V61.0339H288.43V65.4167H295.801V69.3158H283.563V49.3367H295.801V53.2358H288.43Z" fill="#2C2C2C"/>
</svg>
